<svg width="880" height="589" viewBox="0 0 880 589" fill="none" xmlns="http://www.w3.org/2000/svg">
<path d="M345.606 312.734L348.151 315.77L358.329 327.915L438.057 423.051C438.942 424.108 440.568 424.108 441.454 423.052L444.852 419.003L472.035 386.607L529.958 317.576L601.157 402.427L479.186 547.787C461.335 569.061 429.619 571.836 408.346 553.986C406.175 552.164 404.162 550.162 402.328 548.001L301.136 428.76L275.149 398.138L262.156 382.827L260.532 380.913L259.72 379.956L344.334 311.215L345.606 312.734ZM763.174 39.64C782.536 16.5649 816.94 13.556 840.015 32.9183C863.089 52.2808 866.099 86.6832 846.736 109.758L712.135 270.169L640.936 185.318L763.174 39.64Z" fill="#6A6F6F"/>
<rect width="676.633" height="109.083" rx="54.5416" transform="matrix(0.642788 0.766044 0.766044 -0.642788 360.813 70.1173)" fill="#6A6F6F"/>
<path d="M188.798 16.7821C293.068 16.7822 377.596 101.31 377.596 205.58C377.596 309.85 293.068 394.378 188.798 394.378C84.5278 394.378 6.59899e-05 309.85 0 205.58C0 101.31 84.5277 16.7821 188.798 16.7821ZM188.798 92.3016C126.236 92.3016 75.5195 143.018 75.5195 205.58C75.5196 268.142 126.236 318.858 188.798 318.858C251.36 318.858 302.076 268.142 302.076 205.58C302.076 143.018 251.36 92.3017 188.798 92.3016Z" fill="#6A6F6F"/>
</svg>
