<svg width="24" height="24" viewBox="0 0 24 24" fill="none" xmlns="http://www.w3.org/2000/svg">
<path d="M3.299 17.5966C3.731 18.9286 5.044 19.7786 6.445 19.7786H6.5C6.62853 20.406 6.96969 20.9697 7.46582 21.3745C7.96196 21.7794 8.58265 22.0005 9.223 22.0006C9.68 22.0006 10.107 21.8856 10.485 21.6876C10.6428 21.6011 10.774 21.4734 10.8647 21.318C10.9554 21.1626 11.0022 20.9855 11 20.8056V3.02764C11.002 2.79854 10.9251 2.57573 10.7821 2.3967C10.6391 2.21767 10.4389 2.09335 10.215 2.04464C9.71331 1.94719 9.19349 2.01784 8.736 2.24564C7.992 2.60164 7.556 3.39664 7.556 4.22364V4.27864C6.99921 4.165 6.42097 4.22484 5.89925 4.45011C5.37754 4.67537 4.93746 5.05521 4.63837 5.5384C4.33928 6.02159 4.19557 6.58488 4.22661 7.1523C4.25766 7.71972 4.46198 8.26397 4.812 8.71164C4.02808 8.83446 3.31388 9.23342 2.79824 9.83652C2.28261 10.4396 1.9995 11.2072 2 12.0006C2 13.1786 2.611 14.2116 3.533 14.8126C3.103 15.5836 2.962 16.5586 3.299 17.5966ZM19.188 8.71164C19.538 8.26397 19.7423 7.71972 19.7734 7.1523C19.8044 6.58488 19.6607 6.02159 19.3616 5.5384C19.0625 5.05521 18.6225 4.67537 18.1007 4.45011C17.579 4.22484 17.0008 4.165 16.444 4.27864V4.22364C16.444 3.39764 16.007 2.60164 15.263 2.24564C14.8059 2.01777 14.2864 1.94712 13.785 2.04464C13.5612 2.09352 13.3611 2.21789 13.2181 2.39688C13.0752 2.57587 12.9982 2.79858 13 3.02764V20.8046C13 21.1696 13.192 21.5166 13.516 21.6866C13.894 21.8856 14.32 22.0006 14.777 22.0006C15.4175 22.0005 16.0383 21.7792 16.5344 21.3741C17.0306 20.9691 17.3717 20.4051 17.5 19.7776H17.556C18.956 19.7776 20.27 18.9276 20.702 17.5956C21.039 16.5576 20.898 15.5826 20.468 14.8116C20.9377 14.5082 21.3239 14.092 21.5915 13.601C21.8591 13.11 21.9995 12.5598 22 12.0006C22.0005 11.2072 21.7174 10.4396 21.2018 9.83652C20.6861 9.23342 19.9719 8.83446 19.188 8.71164Z" fill="#ED5E20"/>
</svg>
