<svg width="24" height="24" viewBox="0 0 24 24" fill="none" xmlns="http://www.w3.org/2000/svg">
<path d="M12 1C9.82441 1 7.69767 1.64514 5.88873 2.85383C4.07979 4.06253 2.66989 5.78049 1.83733 7.79048C1.00477 9.80047 0.786929 12.0122 1.21137 14.146C1.6358 16.2798 2.68345 18.2398 4.22183 19.7782C5.76021 21.3166 7.72022 22.3642 9.85401 22.7886C11.9878 23.2131 14.1995 22.9952 16.2095 22.1627C18.2195 21.3301 19.9375 19.9202 21.1462 18.1113C22.3549 16.3023 23 14.1756 23 12C23 9.08262 21.8411 6.28473 19.7782 4.22183C17.7153 2.15893 14.9174 1 12 1ZM17.707 9.707L10.707 16.707C10.5195 16.8945 10.2652 16.9998 10 16.9998C9.73484 16.9998 9.48053 16.8945 9.293 16.707L6.293 13.707C6.11085 13.5184 6.01005 13.2658 6.01233 13.0036C6.01461 12.7414 6.11978 12.4906 6.30519 12.3052C6.49059 12.1198 6.74141 12.0146 7.0036 12.0123C7.2658 12.01 7.5184 12.1108 7.707 12.293L10 14.586L16.293 8.293C16.4816 8.11084 16.7342 8.01005 16.9964 8.01233C17.2586 8.0146 17.5094 8.11977 17.6948 8.30518C17.8802 8.49059 17.9854 8.7414 17.9877 9.0036C17.99 9.2658 17.8892 9.5184 17.707 9.707Z" fill="#ED5E20"/>
</svg>
