<svg width="48" height="48" viewBox="0 0 48 48" fill="none" xmlns="http://www.w3.org/2000/svg">
<path fill-rule="evenodd" clip-rule="evenodd" d="M10.0001 6C8.89506 6 7.99805 6.89599 7.99805 8.00099V18C7.99805 19.105 8.89506 20.001 10.0001 20.001H20.0001C21.1041 20.001 22.0001 19.105 22.0001 18V8.00099C22.0001 6.89599 21.1041 6 20.0001 6H10.0001ZM10.0001 24.001C8.89506 24.001 7.99805 24.895 7.99805 26V36.001C7.99805 37.104 8.89506 38 10.0001 38H20.0001C21.1041 38 22.0001 37.104 22.0001 36.001V26C22.0001 24.895 21.1041 24.001 20.0001 24.001H10.0001ZM28.0001 6C26.8961 6 26.0001 6.89599 26.0001 8.00099V18C26.0001 19.105 26.8961 20.001 28.0001 20.001H38.0001C39.1051 20.001 40.0001 19.105 40.0001 18V8.00099C40.0001 6.89599 39.1051 6 38.0001 6H28.0001ZM28.0001 24.001C26.8961 24.001 26.0001 24.895 26.0001 26V36.001C26.0001 37.104 26.8961 38 28.0001 38H38.0001C39.1051 38 40.0001 37.104 40.0001 36.001V26C40.0001 24.895 39.1051 24.001 38.0001 24.001H28.0001Z" fill="#ED5E20"/>
</svg>
