<svg width="16" height="16" viewBox="0 0 16 16" fill="none" xmlns="http://www.w3.org/2000/svg">
<g clip-path="url(#clip0_340_4)">
<path d="M5.52005 0.359C5.55052 0.255329 5.61376 0.164319 5.70029 0.0996C5.78682 0.0348812 5.89199 -6.31864e-05 6.00005 8.57716e-08H10C10.0792 6.01937e-05 10.1573 0.018926 10.2277 0.0550444C10.2982 0.0911628 10.3591 0.143501 10.4054 0.20775C10.4516 0.271999 10.482 0.346322 10.494 0.424601C10.5059 0.502879 10.4991 0.582874 10.474 0.658L8.69405 6H12.5C12.5937 5.99994 12.6855 6.02616 12.7649 6.0757C12.8444 6.12523 12.9083 6.19609 12.9495 6.28019C12.9906 6.36429 13.0074 6.45825 12.9977 6.55139C12.9881 6.64453 12.9525 6.73309 12.895 6.807L5.89505 15.807C5.82334 15.8996 5.72137 15.9642 5.60695 15.9893C5.49252 16.0144 5.3729 15.9986 5.26897 15.9446C5.16503 15.8905 5.08337 15.8017 5.03824 15.6935C4.99311 15.5854 4.98738 15.4649 5.02205 15.353L6.82305 9.5H3.50005C3.42231 9.50005 3.34564 9.48197 3.27611 9.4472C3.20659 9.41243 3.14613 9.36192 3.09953 9.2997C3.05294 9.23748 3.02149 9.16525 3.00769 9.08875C2.9939 9.01225 2.99813 8.93358 3.02005 8.859L5.52005 0.359Z" fill="#ED5E20"/>
</g>
<defs>
<clipPath id="clip0_340_4">
<rect width="16" height="16" fill="white"/>
</clipPath>
</defs>
</svg>
