<svg width="512" height="512" viewBox="0 0 512 512" fill="none" xmlns="http://www.w3.org/2000/svg">
<g clip-path="url(#clip0_340_2)">
<path d="M512 287.999C512 323.349 490.51 351.999 464 351.999C431.57 351.999 432.28 319.999 408.36 319.999C394.9 319.999 384 330.899 384 344.399V479.999C384 497.669 369.67 511.999 352 511.999H280.36C266.9 511.999 256 501.099 256 487.599C256 463.099 288 464.399 288 431.999C288 405.489 259.35 383.999 224 383.999C188.65 383.999 160 405.489 160 431.999C160 464.429 192 463.719 192 487.639C192 501.099 181.1 511.999 167.6 511.999H32C14.33 511.999 0 497.669 0 479.999V344.399C0 330.899 10.91 319.999 24.36 319.999C48.05 319.999 47.6 351.999 80 351.999C106.5 351.999 128 323.299 128 287.999C128 252.699 106.5 223.099 80 223.099C47.57 223.099 48.28 255.099 24.36 255.099C10.91 255.099 0 245.099 0 231.599V159.959C0 142.289 14.33 128.859 32 128.859H167.6C181.1 127.099 192 117.099 192 103.599C192 79.9094 160 80.3594 160 47.9594C160 21.4494 188.65 0.859375 224 0.859375C259.35 0.859375 288 22.3494 288 47.9594C288 80.3894 256 79.6794 256 103.599C256 117.049 266.91 127.959 280.36 127.959H352C369.67 127.959 384 142.289 384 159.059V230.699C384 244.149 394.91 255.059 408.36 255.059C432.05 255.059 431.6 223.059 464 223.059C490.5 223.099 512 252.699 512 287.999Z" fill="#ED5E20"/>
</g>
<defs>
<clipPath id="clip0_340_2">
<rect width="512" height="512" fill="white"/>
</clipPath>
</defs>
</svg>
