<svg width="2280" height="899" viewBox="0 0 2280 899" fill="none" xmlns="http://www.w3.org/2000/svg">
<path d="M345.607 449.734L348.152 452.77L358.329 464.915L438.057 560.051C438.942 561.108 440.568 561.108 441.454 560.052L444.852 556.003L472.035 523.607L529.958 454.576L601.157 539.427L479.186 684.787C461.335 706.061 429.62 708.836 408.346 690.986C406.175 689.164 404.162 687.162 402.328 685.001L301.136 565.76L275.15 535.138L262.156 519.827L260.532 517.913L259.72 516.956L344.334 448.215L345.607 449.734ZM763.174 176.64C782.536 153.565 816.94 150.556 840.015 169.918C863.09 189.281 866.099 223.683 846.737 246.758L712.135 407.169L640.936 322.318L763.174 176.64Z" fill="#19181D"/>
<rect width="676.633" height="109.083" rx="54.5416" transform="matrix(0.642788 0.766044 0.766044 -0.642788 360.813 207.117)" fill="#19181D"/>
<path d="M188.798 153.782C293.068 153.782 377.596 238.31 377.596 342.58C377.596 446.85 293.068 531.378 188.798 531.378C84.5278 531.378 6.59899e-05 446.85 0 342.58C0 238.31 84.5277 153.782 188.798 153.782ZM188.798 229.302C126.236 229.302 75.5195 280.018 75.5195 342.58C75.5196 405.142 126.236 455.858 188.798 455.858C251.36 455.858 302.076 405.142 302.076 342.58C302.076 280.018 251.36 229.302 188.798 229.302Z" fill="#19181D"/>
<path d="M970.8 660.5C970.8 669.367 967.767 676.833 961.7 682.9C955.633 688.967 948.167 692 939.3 692C930.433 692 922.967 688.967 916.9 682.9C910.833 676.833 907.8 669.367 907.8 660.5V197.1C907.8 188.233 910.833 180.767 916.9 174.7C922.967 168.633 930.433 165.6 939.3 165.6C948.167 165.6 955.633 168.633 961.7 174.7C967.767 180.767 970.8 188.233 970.8 197.1V368.6C987.6 353.667 1006.27 342.467 1026.8 335C1047.8 327.067 1069.5 323.1 1091.9 323.1C1117.57 323.1 1141.6 328 1164 337.8C1186.4 347.6 1205.77 360.9 1222.1 377.7C1238.9 394.033 1251.97 413.4 1261.3 435.8C1271.1 458.2 1276 482.233 1276 507.9V660.5C1276 669.367 1272.97 676.833 1266.9 682.9C1260.83 688.967 1253.37 692 1244.5 692C1235.63 692 1228.17 688.967 1222.1 682.9C1216.03 676.833 1213 669.367 1213 660.5V507.9C1213 491.1 1209.73 475.467 1203.2 461C1197.13 446.067 1188.5 433.233 1177.3 422.5C1166.57 411.3 1153.73 402.667 1138.8 396.6C1124.33 390.067 1108.7 386.8 1091.9 386.8C1075.1 386.8 1059.23 390.067 1044.3 396.6C1029.83 402.667 1017 411.3 1005.8 422.5C995.067 433.233 986.433 446.067 979.9 461C973.833 475.467 970.8 491.1 970.8 507.9V660.5ZM1320.46 213.2C1320.46 199.667 1324.89 188.467 1333.76 179.6C1343.09 170.267 1354.53 165.6 1368.06 165.6C1381.13 165.6 1392.09 170.267 1400.96 179.6C1410.29 188.467 1414.96 199.667 1414.96 213.2C1414.96 226.267 1410.29 237.467 1400.96 246.8C1392.09 255.667 1381.13 260.1 1368.06 260.1C1354.53 260.1 1343.09 255.667 1333.76 246.8C1324.89 237.467 1320.46 226.267 1320.46 213.2ZM1399.56 660.5C1399.56 669.367 1396.53 676.833 1390.46 682.9C1384.39 688.967 1376.93 692 1368.06 692C1359.19 692 1351.73 688.967 1345.66 682.9C1339.59 676.833 1336.56 669.367 1336.56 660.5V355.3C1336.56 346.433 1339.59 338.967 1345.66 332.9C1351.73 326.833 1359.19 323.8 1368.06 323.8C1376.93 323.8 1384.39 326.833 1390.46 332.9C1396.53 338.967 1399.56 346.433 1399.56 355.3V660.5ZM1466.12 197.1C1466.12 188.233 1469.15 180.767 1475.22 174.7C1481.28 168.633 1488.75 165.6 1497.62 165.6C1506.48 165.6 1513.95 168.633 1520.02 174.7C1526.08 180.767 1529.12 188.233 1529.12 197.1V368.6C1545.92 353.667 1564.58 342.467 1585.12 335C1606.12 327.067 1627.82 323.1 1650.22 323.1C1675.88 323.1 1699.92 328 1722.32 337.8C1744.72 347.6 1764.08 360.9 1780.42 377.7C1797.22 394.033 1810.52 413.4 1820.32 435.8C1830.12 458.2 1835.02 482.233 1835.02 507.9C1835.02 533.1 1830.12 556.9 1820.32 579.3C1810.52 601.7 1797.22 621.3 1780.42 638.1C1764.08 654.9 1744.72 668.2 1722.32 678C1699.92 687.333 1675.88 692 1650.22 692C1625.02 692 1601.22 687.333 1578.82 678C1556.42 668.2 1536.82 654.9 1520.02 638.1C1503.22 621.3 1489.92 601.7 1480.12 579.3C1470.78 556.9 1466.12 533.1 1466.12 507.9V197.1ZM1650.22 629C1667.02 629 1682.65 625.967 1697.12 619.9C1712.05 613.367 1724.88 604.733 1735.62 594C1746.82 582.8 1755.45 569.967 1761.52 555.5C1768.05 540.567 1771.32 524.7 1771.32 507.9C1771.32 491.1 1768.05 475.467 1761.52 461C1755.45 446.067 1746.82 433.233 1735.62 422.5C1724.88 411.3 1712.05 402.667 1697.12 396.6C1682.65 390.067 1667.02 386.8 1650.22 386.8C1633.42 386.8 1617.55 390.067 1602.62 396.6C1588.15 402.667 1575.32 411.3 1564.12 422.5C1553.38 433.233 1544.75 446.067 1538.22 461C1532.15 475.467 1529.12 491.1 1529.12 507.9C1529.12 524.7 1532.15 540.567 1538.22 555.5C1544.75 569.967 1553.38 582.8 1564.12 594C1575.32 604.733 1588.15 613.367 1602.62 619.9C1617.55 625.967 1633.42 629 1650.22 629ZM1870.75 213.2C1870.75 199.667 1875.19 188.467 1884.05 179.6C1893.39 170.267 1904.82 165.6 1918.35 165.6C1931.42 165.6 1942.39 170.267 1951.25 179.6C1960.59 188.467 1965.25 199.667 1965.25 213.2C1965.25 226.267 1960.59 237.467 1951.25 246.8C1942.39 255.667 1931.42 260.1 1918.35 260.1C1904.82 260.1 1893.39 255.667 1884.05 246.8C1875.19 237.467 1870.75 226.267 1870.75 213.2ZM1949.85 660.5C1949.85 669.367 1946.82 676.833 1940.75 682.9C1934.69 688.967 1927.22 692 1918.35 692C1909.49 692 1902.02 688.967 1895.95 682.9C1889.89 676.833 1886.85 669.367 1886.85 660.5V355.3C1886.85 346.433 1889.89 338.967 1895.95 332.9C1902.02 326.833 1909.49 323.8 1918.35 323.8C1927.22 323.8 1934.69 326.833 1940.75 332.9C1946.82 338.967 1949.85 346.433 1949.85 355.3V660.5ZM2066.96 197.1C2066.96 188.233 2069.99 180.767 2076.06 174.7C2082.12 168.633 2089.59 165.6 2098.46 165.6C2107.32 165.6 2114.79 168.633 2120.86 174.7C2126.92 180.767 2129.96 188.233 2129.96 197.1V323.8H2206.96C2215.82 323.8 2223.29 326.833 2229.36 332.9C2235.42 338.967 2238.46 346.433 2238.46 355.3C2238.46 364.167 2235.42 371.633 2229.36 377.7C2223.29 383.767 2215.82 386.8 2206.96 386.8H2129.96V572.3C2129.96 587.233 2135.09 599.833 2145.36 610.1C2155.62 620.367 2167.99 625.5 2182.46 625.5H2202.76C2211.16 625.5 2218.39 628.533 2224.46 634.6C2230.99 640.667 2234.26 648.133 2234.26 657C2234.26 665.867 2230.99 673.333 2224.46 679.4C2218.39 685.467 2211.16 688.5 2202.76 688.5H2182.46C2166.59 688.5 2151.66 685.467 2137.66 679.4C2123.66 673.333 2111.29 665.167 2100.56 654.9C2090.29 644.167 2082.12 631.8 2076.06 617.8C2069.99 603.333 2066.96 588.167 2066.96 572.3V386.8H2027.06C2018.19 386.8 2010.72 383.767 2004.66 377.7C1998.59 371.633 1995.56 364.167 1995.56 355.3C1995.56 346.433 1998.59 338.967 2004.66 332.9C2010.72 326.833 2018.19 323.8 2027.06 323.8H2066.96V197.1Z" fill="#ED5E20"/>
<path d="M970.8 660.5C970.8 669.367 967.767 676.833 961.7 682.9C955.633 688.967 948.167 692 939.3 692C930.433 692 922.967 688.967 916.9 682.9C910.833 676.833 907.8 669.367 907.8 660.5V197.1C907.8 188.233 910.833 180.767 916.9 174.7C922.967 168.633 930.433 165.6 939.3 165.6C948.167 165.6 955.633 168.633 961.7 174.7C967.767 180.767 970.8 188.233 970.8 197.1V368.6C987.6 353.667 1006.27 342.467 1026.8 335C1047.8 327.067 1069.5 323.1 1091.9 323.1C1117.57 323.1 1141.6 328 1164 337.8C1186.4 347.6 1205.77 360.9 1222.1 377.7C1238.9 394.033 1251.97 413.4 1261.3 435.8C1271.1 458.2 1276 482.233 1276 507.9V660.5C1276 669.367 1272.97 676.833 1266.9 682.9C1260.83 688.967 1253.37 692 1244.5 692C1235.63 692 1228.17 688.967 1222.1 682.9C1216.03 676.833 1213 669.367 1213 660.5V507.9C1213 491.1 1209.73 475.467 1203.2 461C1197.13 446.067 1188.5 433.233 1177.3 422.5C1166.57 411.3 1153.73 402.667 1138.8 396.6C1124.33 390.067 1108.7 386.8 1091.9 386.8C1075.1 386.8 1059.23 390.067 1044.3 396.6C1029.83 402.667 1017 411.3 1005.8 422.5C995.067 433.233 986.433 446.067 979.9 461C973.833 475.467 970.8 491.1 970.8 507.9V660.5ZM1320.46 213.2C1320.46 199.667 1324.89 188.467 1333.76 179.6C1343.09 170.267 1354.53 165.6 1368.06 165.6C1381.13 165.6 1392.09 170.267 1400.96 179.6C1410.29 188.467 1414.96 199.667 1414.96 213.2C1414.96 226.267 1410.29 237.467 1400.96 246.8C1392.09 255.667 1381.13 260.1 1368.06 260.1C1354.53 260.1 1343.09 255.667 1333.76 246.8C1324.89 237.467 1320.46 226.267 1320.46 213.2ZM1399.56 660.5C1399.56 669.367 1396.53 676.833 1390.46 682.9C1384.39 688.967 1376.93 692 1368.06 692C1359.19 692 1351.73 688.967 1345.66 682.9C1339.59 676.833 1336.56 669.367 1336.56 660.5V355.3C1336.56 346.433 1339.59 338.967 1345.66 332.9C1351.73 326.833 1359.19 323.8 1368.06 323.8C1376.93 323.8 1384.39 326.833 1390.46 332.9C1396.53 338.967 1399.56 346.433 1399.56 355.3V660.5ZM1466.12 197.1C1466.12 188.233 1469.15 180.767 1475.22 174.7C1481.28 168.633 1488.75 165.6 1497.62 165.6C1506.48 165.6 1513.95 168.633 1520.02 174.7C1526.08 180.767 1529.12 188.233 1529.12 197.1V368.6C1545.92 353.667 1564.58 342.467 1585.12 335C1606.12 327.067 1627.82 323.1 1650.22 323.1C1675.88 323.1 1699.92 328 1722.32 337.8C1744.72 347.6 1764.08 360.9 1780.42 377.7C1797.22 394.033 1810.52 413.4 1820.32 435.8C1830.12 458.2 1835.02 482.233 1835.02 507.9C1835.02 533.1 1830.12 556.9 1820.32 579.3C1810.52 601.7 1797.22 621.3 1780.42 638.1C1764.08 654.9 1744.72 668.2 1722.32 678C1699.92 687.333 1675.88 692 1650.22 692C1625.02 692 1601.22 687.333 1578.82 678C1556.42 668.2 1536.82 654.9 1520.02 638.1C1503.22 621.3 1489.92 601.7 1480.12 579.3C1470.78 556.9 1466.12 533.1 1466.12 507.9V197.1ZM1650.22 629C1667.02 629 1682.65 625.967 1697.12 619.9C1712.05 613.367 1724.88 604.733 1735.62 594C1746.82 582.8 1755.45 569.967 1761.52 555.5C1768.05 540.567 1771.32 524.7 1771.32 507.9C1771.32 491.1 1768.05 475.467 1761.52 461C1755.45 446.067 1746.82 433.233 1735.62 422.5C1724.88 411.3 1712.05 402.667 1697.12 396.6C1682.65 390.067 1667.02 386.8 1650.22 386.8C1633.42 386.8 1617.55 390.067 1602.62 396.6C1588.15 402.667 1575.32 411.3 1564.12 422.5C1553.38 433.233 1544.75 446.067 1538.22 461C1532.15 475.467 1529.12 491.1 1529.12 507.9C1529.12 524.7 1532.15 540.567 1538.22 555.5C1544.75 569.967 1553.38 582.8 1564.12 594C1575.32 604.733 1588.15 613.367 1602.62 619.9C1617.55 625.967 1633.42 629 1650.22 629ZM1870.75 213.2C1870.75 199.667 1875.19 188.467 1884.05 179.6C1893.39 170.267 1904.82 165.6 1918.35 165.6C1931.42 165.6 1942.39 170.267 1951.25 179.6C1960.59 188.467 1965.25 199.667 1965.25 213.2C1965.25 226.267 1960.59 237.467 1951.25 246.8C1942.39 255.667 1931.42 260.1 1918.35 260.1C1904.82 260.1 1893.39 255.667 1884.05 246.8C1875.19 237.467 1870.75 226.267 1870.75 213.2ZM1949.85 660.5C1949.85 669.367 1946.82 676.833 1940.75 682.9C1934.69 688.967 1927.22 692 1918.35 692C1909.49 692 1902.02 688.967 1895.95 682.9C1889.89 676.833 1886.85 669.367 1886.85 660.5V355.3C1886.85 346.433 1889.89 338.967 1895.95 332.9C1902.02 326.833 1909.49 323.8 1918.35 323.8C1927.22 323.8 1934.69 326.833 1940.75 332.9C1946.82 338.967 1949.85 346.433 1949.85 355.3V660.5ZM2066.96 197.1C2066.96 188.233 2069.99 180.767 2076.06 174.7C2082.12 168.633 2089.59 165.6 2098.46 165.6C2107.32 165.6 2114.79 168.633 2120.86 174.7C2126.92 180.767 2129.96 188.233 2129.96 197.1V323.8H2206.96C2215.82 323.8 2223.29 326.833 2229.36 332.9C2235.42 338.967 2238.46 346.433 2238.46 355.3C2238.46 364.167 2235.42 371.633 2229.36 377.7C2223.29 383.767 2215.82 386.8 2206.96 386.8H2129.96V572.3C2129.96 587.233 2135.09 599.833 2145.36 610.1C2155.62 620.367 2167.99 625.5 2182.46 625.5H2202.76C2211.16 625.5 2218.39 628.533 2224.46 634.6C2230.99 640.667 2234.26 648.133 2234.26 657C2234.26 665.867 2230.99 673.333 2224.46 679.4C2218.39 685.467 2211.16 688.5 2202.76 688.5H2182.46C2166.59 688.5 2151.66 685.467 2137.66 679.4C2123.66 673.333 2111.29 665.167 2100.56 654.9C2090.29 644.167 2082.12 631.8 2076.06 617.8C2069.99 603.333 2066.96 588.167 2066.96 572.3V386.8H2027.06C2018.19 386.8 2010.72 383.767 2004.66 377.7C1998.59 371.633 1995.56 364.167 1995.56 355.3C1995.56 346.433 1998.59 338.967 2004.66 332.9C2010.72 326.833 2018.19 323.8 2027.06 323.8H2066.96V197.1Z" fill="url(#paint0_linear_8_66)"/>
<defs>
<linearGradient id="paint0_linear_8_66" x1="877" y1="0" x2="2342.94" y2="118.171" gradientUnits="userSpaceOnUse">
<stop stop-color="#FF4D00"/>
<stop offset="0.347879" stop-color="#FF8700"/>
<stop offset="0.6546" stop-color="#FFA600"/>
<stop offset="1" stop-color="#FFDB97"/>
</linearGradient>
</defs>
</svg>
